<?xml version="1.0" standalone="no"?><!DOCTYPE svg PUBLIC "-//W3C//DTD SVG 1.1//EN" "http://www.w3.org/Graphics/SVG/1.1/DTD/svg11.dtd"><svg t="1697942112651" class="icon" viewBox="0 0 1024 1024" version="1.1" xmlns="http://www.w3.org/2000/svg" p-id="18387" xmlns:xlink="http://www.w3.org/1999/xlink" width="200" height="200"><path d="M672.007314 167.994514c-189.688686 0-344.005486 154.331429-344.005485 344.005486 0 189.674057 154.331429 344.005486 343.990857 344.005486 189.688686 0 344.005486-154.331429 344.005485-344.005486 0-189.674057-154.331429-344.005486-344.005485-344.005486z" fill="#F0F8FF" p-id="18388"></path><path d="M512 131.9936C302.474971 131.9936 131.9936 302.474971 131.9936 512c0 209.539657 170.481371 380.0064 380.0064 380.0064 209.539657 0 380.0064-170.466743 380.0064-380.0064C892.0064 302.474971 721.539657 131.9936 512 131.9936z m-166.619429 83.719314a207.0528 207.0528 0 0 0-37.888 86.498743 166.078171 166.078171 0 0 1-48.142628-17.481143 342.3232 342.3232 0 0 1 86.030628-69.0176z m-111.294171 100.644572a205.765486 205.765486 0 0 0 69.924571 25.863314v149.781943H172.617143a337.993143 337.993143 0 0 1 61.483886-175.659886z m0 391.285028A337.978514 337.978514 0 0 1 172.617143 531.997257h131.408457v149.796572a205.765486 205.765486 0 0 0-69.924571 25.848685z m25.263543 31.626972a166.034286 166.034286 0 0 1 48.128-17.481143 207.082057 207.082057 0 0 0 37.902628 86.498743 342.308571 342.308571 0 0 1-86.030628-69.0176z m232.6528 111.4112c-71.68-8.557714-129.667657-62.405486-144.354743-132.037486h144.354743v132.037486z m0-172.032H344.020114V531.982629h147.982629v146.6368z m0-186.660572H344.020114V345.380571h147.982629v146.6368z m0-186.631314h-144.354743c14.687086-69.632 72.660114-123.479771 144.354743-132.037486v132.037486z m297.910857 10.986057A337.993143 337.993143 0 0 1 851.382857 492.002743h-131.408457v-149.796572a205.7216 205.7216 0 0 0 69.924571-25.848685z m-25.263543-31.597714a166.034286 166.034286 0 0 1-48.128 17.466514 207.082057 207.082057 0 0 0-37.917257-86.498743 342.308571 342.308571 0 0 1 86.045257 69.0176z m-232.6528-111.425829c71.68 8.557714 129.653029 62.390857 144.354743 132.037486h-144.354743v-132.037486z m0 172.032h147.982629v146.651429H531.997257V345.365943z m0 186.660572h147.982629V678.619429H531.997257V531.997257z m0 318.6688v-132.037486h144.354743c-14.701714 69.632-72.660114 123.465143-144.354743 132.022857v0.014629z m146.607543-42.3936a207.0528 207.0528 0 0 0 37.917257-86.498743c16.852114 3.306057 33.089829 9.201371 48.128 17.481143a342.3232 342.3232 0 0 1-86.030628 69.0176z m111.3088-100.644572a205.765486 205.765486 0 0 0-69.924571-25.863314V531.997257H851.382857a337.993143 337.993143 0 0 1-61.498514 175.659886z" fill="#226EE7" p-id="18389"></path><path d="M784.120686 897.682286a19.997257 19.997257 0 1 1 23.083885 32.650971C720.544914 991.626971 618.466743 1024 512 1024c-58.894629 0-116.6336-9.918171-171.651657-29.505829a19.997257 19.997257 0 0 1 13.4144-37.6832A470.601143 470.601143 0 0 0 512 984.005486c98.157714 0 192.234057-29.842286 272.120686-86.3232zM25.1904 352.987429a19.997257 19.997257 0 1 1 38.019657 12.434285A471.405714 471.405714 0 0 0 39.994514 512c0 107.300571 35.093943 208.340114 101.463772 292.337371a60.094171 60.094171 0 0 1 65.067885 13.121829c23.405714 23.405714 23.405714 61.469257 0 84.860343a59.816229 59.816229 0 0 1-42.422857 17.554286 59.816229 59.816229 0 0 1-42.422857-17.554286 60.094171 60.094171 0 0 1-10.122971-71.358172l-0.380343-0.394971C38.443886 739.152457 0 628.999314 0 512c0-54.315886 8.484571-107.812571 25.1904-158.997943z m138.912914 486.897371a19.894857 19.894857 0 0 0-14.145828 5.851429 19.8656 19.8656 0 0 0-5.851429 14.145828c0 5.339429 2.077257 10.357029 5.851429 14.145829 3.7888 3.774171 8.8064 5.851429 14.145828 5.851428s10.371657-2.077257 14.145829-5.851428c3.774171-3.7888 5.851429-8.8064 5.851428-14.145829s-2.077257-10.371657-5.851428-14.145828a19.8656 19.8656 0 0 0-14.145829-5.851429z m695.808 0c5.251657 0 10.415543 2.135771 14.1312 5.851429 3.715657 3.730286 5.851429 8.894171 5.851429 14.145828 0 5.266286-2.135771 10.430171-5.851429 14.145829-3.759543 3.730286-8.835657 5.8368-14.145828 5.851428a20.158171 20.158171 0 0 1-14.1312-5.851428 20.158171 20.158171 0 0 1-5.866057-14.145829c0-5.266286 2.135771-10.415543 5.851428-14.1312 3.759543-3.744914 8.850286-5.851429 14.145829-5.866057z m-0.014628-751.791543c20.304457 0 39.380114 7.899429 53.745371 22.250057a75.498057 75.498057 0 0 1 22.250057 53.745372 75.439543 75.439543 0 0 1-12.975543 42.496C989.096229 295.3216 1024 400.544914 1024 512c0 66.633143-12.624457 131.452343-37.522286 192.672914a20.011886 20.011886 0 0 1-37.039543-15.067428A469.357714 469.357714 0 0 0 984.005486 512c0-101.770971-31.568457-197.924571-91.457829-279.230171a75.717486 75.717486 0 0 1-32.650971 7.328914 75.483429 75.483429 0 0 1-53.745372-22.250057 75.512686 75.512686 0 0 1-22.250057-53.745372c0-20.289829 7.899429-39.380114 22.250057-53.730743a75.512686 75.512686 0 0 1 53.745372-22.264685z m0 39.994514a35.766857 35.766857 0 0 0-25.453715 10.532572 35.766857 35.766857 0 0 0-10.5472 25.468343c-0.029257 9.552457 3.774171 18.724571 10.532572 25.453714 6.743771 6.773029 15.915886 10.576457 25.468343 10.5472a35.766857 35.766857 0 0 0 25.453714-10.532571c6.773029-6.743771 10.576457-15.915886 10.532571-25.468343a35.766857 35.766857 0 0 0-10.532571-25.453715 35.766857 35.766857 0 0 0-25.453714-10.532571zM164.103314 144.106057c5.280914 0 10.415543 2.135771 14.1312 5.851429 3.730286 3.715657 5.851429 8.879543 5.851429 14.1312 0 5.266286-2.121143 10.430171-5.851429 14.145828-3.759543 3.744914-8.835657 5.851429-14.1312 5.851429a20.158171 20.158171 0 0 1-14.145828-5.851429 20.158171 20.158171 0 0 1-5.851429-14.1312c0-5.266286 2.135771-10.430171 5.851429-14.145828 3.759543-3.730286 8.850286-5.851429 14.145828-5.851429zM512 0c66.223543 0 130.691657 12.478171 191.605029 37.083429a19.997257 19.997257 0 1 1-14.994286 37.083428A469.2992 469.2992 0 0 0 512 39.994514c-100.6592 0-196.754286 31.275886-277.840457 90.433829a19.982629 19.982629 0 1 1-23.566629-32.329143C298.569143 33.938286 402.812343 0 512 0z" fill="#78B5FF" p-id="18390"></path></svg>